<?xml version="1.0" standalone="no"?>
<!DOCTYPE svg PUBLIC "-//W3C//DTD SVG 20010904//EN"
 "http://www.w3.org/TR/2001/REC-SVG-20010904/DTD/svg10.dtd">
<svg version="1.0" xmlns="http://www.w3.org/2000/svg"
 width="640.000000pt" height="640.000000pt" viewBox="0 0 640.000000 640.000000"
 preserveAspectRatio="xMidYMid meet">

<g transform="translate(0.000000,640.000000) scale(0.100000,-0.100000)"
fill="#000000" stroke="none">
<path d="M3045 5274 c-403 -32 -746 -127 -1062 -295 l-112 -59 -20 28 c-28 39
-128 110 -196 139 -127 53 -289 47 -418 -16 -169 -82 -274 -233 -292 -422 -13
-131 42 -291 134 -389 l49 -52 -30 -52 c-71 -119 -143 -276 -183 -399 -71
-219 -96 -376 -95 -612 0 -304 62 -567 195 -840 491 -1000 1738 -1504 2909
-1175 883 248 1515 925 1641 1758 18 115 20 383 5 497 -38 277 -135 557 -269
772 l-29 47 53 58 c253 273 132 728 -224 838 -90 28 -222 29 -312 1 -76 -24
-167 -81 -223 -139 l-39 -41 -111 59 c-268 142 -564 235 -880 275 -120 15
-399 26 -491 19z m407 -1610 l3 -876 388 293 c216 163 391 288 395 283 4 -6
67 -90 141 -188 114 -150 132 -179 120 -190 -28 -26 -1536 -1156 -1542 -1156
-4 0 -7 394 -7 875 l0 876 -386 -291 c-212 -159 -389 -290 -393 -290 -9 0
-281 357 -280 368 0 4 344 266 765 581 421 316 767 579 770 583 3 4 9 8 15 8
5 0 10 -341 11 -876z"/>
</g>
</svg>
